4D 54 68 64 00 00 00 06 00 01 00 06 00 78 4D 54 72 6B 00 00 00 45 00 FF 58 04 04 02 18 08 00 FF 59 02 00 00 00 FF 51 03 05 E8 19 00 FF 06 28 54 68 65 6D 65 20 74 6F 20 22 4D 2E 55 2E 4C 2E 45 2E 22 20 20 4D 75 73 69 63 20 62 79 20 52 6F 79 20 47 6C 6F 76 65 72 00 FF 2F 00 4D 54 72 6B 00 00 06 2C 00 FF 21 01 00 00 FF 03 04 42 61 73 73 00 C0 26 00 B0 07 7F 00 B0 0A 32 8F 00 90 29 6A 3B 29 00 01 35 60 3B 35 00 01 21 6A 3B 21 00 01 2D 58 3B 2D 00 01 22 6A 3B 22 00 01 2E 4C 3B 2E 00 01 23 67 3B 23 00 01 2F 5A 3B 2F 00 01 24 5E 3B 24 00 01 30 58 3B 30 00 01 26 6A 3B 26 00 01 32 58 3B 32 00 01 27 5F 3B 27 00 01 33 4E 3B 33 00 01 28 62 3B 28 00 01 34 5E 3B 34 00 01 29 7B 3B 29 00 01 35 62 3B 35 00 01 21 65 3B 21 00 01 2D 5A 3B 2D 00 01 22 73 3B 22 00 01 2E 50 3B 2E 00 01 23 62 3B 23 00 01 2F 58 3B 2F 00 01 24 65 3B 24 00 01 30 5A 3B 30 00 01 26 70 3B 26 00 01 32 52 3B 32 00 01 27 77 3B 27 00 01 33 3E 3B 33 00 01 28 7B 3B 28 00 01 34 5E 3B 34 00 01 29 7F 3B 29 00 01 35 53 3B 35 00 01 21 5A 3B 21 00 01 2D 5A 3B 2D 00 01 22 73 3B 22 00 01 2E 50 3B 2E 00 01 23 67 3B 23 00 01 2F 5E 3B 2F 00 01 27 73 3B 27 00 01 33 50 3B 33 00 01 25 56 3B 25 00 01 31 50 3B 31 00 01 27 77 3B 27 00 01 33 4A 3B 33 00 01 25 50 3B 25 00 01 31 50 3B 31 00 01 29 6D 3B 29 00 01 35 62 3B 35 00 01 21 5E 3B 21 00 01 2D 5E 3B 2D 00 01 22 5B 3B 22 00 01 2E 4A 3B 2E 00 01 23 62 3B 23 00 01 2F 55 3B 2F 00 01 27 66 3B 27 00 01 33 53 3B 33 00 01 25 4E 3B 25 00 01 31 50 3B 31 00 01 27 6A 3B 27 00 01 33 4C 3B 33 00 01 25 5B 3B 25 00 01 31 4A 3B 31 00 01 29 70 3B 29 00 01 35 62 3B 35 00 01 21 62 3B 21 00 01 2D 5C 3B 2D 00 01 22 73 3B 22 00 01 2E 4C 3B 2E 00 01 23 60 3B 23 00 01 2F 56 3B 2F 00 01 27 66 3B 27 00 01 33 53 3B 33 00 01 25 58 3B 25 00 01 31 53 3B 31 00 01 27 73 3B 27 00 01 33 50 3B 33 00 01 25 58 3B 25 00 01 31 4E 3B 31 00 01 29 7B 3B 29 00 01 35 4E 3B 35 00 01 21 5C 3B 21 00 01 2D 4F 3B 2D 00 01 22 6A 3B 22 00 01 2E 4C 3B 2E 00 01 23 62 3B 23 00 01 2F 5C 3B 2F 00 01 27 5F 3B 27 00 01 33 4E 3B 33 00 01 25 50 3B 25 00 01 31 50 3B 31 00 01 27 77 3B 27 00 01 33 58 3B 33 00 01 25 4A 3B 25 00 01 31 58 3B 31 00 01 35 65 00 29 7F 3B 29 00 00 35 00 79 35 7F 1D 35 00 01 35 7F 1D 35 00 01 35 7B 00 29 7F 3B 29 00 00 35 00 81 35 33 7D 00 27 77 3B 27 00 00 33 00 79 33 5B 1D 33 00 01 33 6E 1D 33 00 01 33 73 00 27 66 3B 27 00 00 33 00 81 35 25 7D 00 31 7D 3B 31 00 00 25 00 79 31 66 1D 31 00 01 31 6E 1D 31 00 01 25 7D 00 31 77 3B 31 00 00 25 00 81 35 24 7F 00 30 7F 3B 30 00 00 24 00 79 30 7F 1D 30 00 01 30 74 1D 30 00 01 24 7F 00 30 7F 3B 30 00 00 24 00 81 35 35 7F 00 29 7F 3B 29 00 00 35 00 79 35 7F 1D 35 00 01 35 7F 00 35 56 1D 35 00 00 35 00 01 29 7F 00 35 7B 3B 35 00 00 29 00 81 35 33 7F 00 27 7D 3B 27 00 00 33 00 79 33 7D 1D 33 00 01 33 7D 00 33 6E 1D 33 00 00 33 00 01 33 7D 00 27 77 3B 27 00 00 33 00 81 35 31 7D 00 25 7D 3B 25 00 00 31 00 79 31 77 1D 31 00 01 31 6A 1D 31 00 01 25 7D 00 31 7D 3B 31 00 00 25 00 81 35 24 7F 00 30 7F 3B 30 00 00 24 00 79 30 67 1D 30 00 01 30 67 1D 30 00 01 24 7F 00 30 7F 3B 30 00 00 24 00 90 35 29 7F 77 29 00 01 2C 53 77 2C 00 01 30 6D 77 30 00 01 35 62 77 35 00 01 25 6E 77 25 00 01 29 70 77 29 00 01 2C 5B 77 2C 00 01 31 62 77 31 00 01 26 7F 77 26 00 01 29 67 77 29 00 01 2D 6A 77 2D 00 01 32 65 77 32 00 01 2B 6D 77 2B 00 01 26 7F 77 26 00 01 2B 67 77 2B 00 01 32 67 77 32 00 01 2C 62 77 2C 00 01 27 7D 77 27 00 01 2C 5B 77 2C 00 01 33 62 77 33 00 01 27 77 77 27 00 01 2B 62 77 2B 00 01 2E 5B 77 2E 00 01 33 5F 77 33 00 01 29 7F 3B 29 00 01 35 58 3B 35 00 01 27 5F 3B 27 00 01 33 4E 3B 33 00 01 25 6E 3B 25 00 01 31 56 3B 31 00 01 24 74 3B 24 00 01 30 5A 3B 30 00 01 22 6E 3B 22 00 01 2E 56 3B 2E 00 01 20 6A 3B 20 00 01 2C 58 3B 2C 00 01 1F 6A 3B 1F 00 01 2B 65 3B 2B 00 01 24 77 3B 24 00 01 30 6D 3B 30 00 01 29 7F 3B 29 00 01 35 5C 3B 35 00 01 21 62 3B 21 00 01 2D 5A 3B 2D 00 01 22 6E 3B 22 00 01 2E 48 3B 2E 00 01 23 60 3B 23 00 01 2F 5C 3B 2F 00 01 27 7D 3B 27 00 01 33 58 3B 33 00 01 25 53 3B 25 00 01 31 58 3B 31 00 01 27 77 3B 27 00 01 33 4E 3B 33 00 01 25 5B 3B 25 00 01 31 53 3B 31 00 01 29 7F 3B 29 00 01 35 65 3B 35 00 01 21 65 3B 21 00 01 2D 60 3B 2D 00 01 22 77 3B 22 00 01 2E 50 3B 2E 00 01 23 6A 3B 23 00 01 2F 5E 3B 2F 00 01 27 6E 3B 27 00 01 33 56 3B 33 00 01 25 5F 3B 25 00 01 31 5B 3B 31 00 01 27 6E 3B 27 00 01 33 53 3B 33 00 01 25 58 3B 25 00 01 31 5B 3B 31 00 01 29 6A 3B 29 00 01 35 62 3B 35 00 01 21 62 3B 21 00 01 2D 67 3B 2D 00 01 22 77 3B 22 00 01 2E 56 3B 2E 00 01 23 67 3B 23 00 01 2F 60 3B 2F 00 01 27 73 3B 27 00 01 33 50 3B 33 00 01 25 4E 3B 25 00 01 31 56 3B 31 00 01 27 73 3B 27 00 01 33 58 3B 33 00 01 25 58 3B 25 00 01 31 58 3B 31 00 01 29 7F 3B 29 00 01 35 5E 3B 35 00 01 21 60 3B 21 00 01 2D 60 3B 2D 00 01 22 77 3B 22 00 01 2E 53 3B 2E 00 01 23 6A 3B 23 00 01 2F 65 3B 2F 00 01 27 73 3B 27 00 01 33 56 3B 33 00 01 25 5F 3B 25 00 01 31 5B 3B 31 00 01 27 77 3B 27 00 01 33 58 3B 33 00 01 25 56 3B 25 00 01 31 50 3B 31 00 01 29 6A 00 35 5C 3B 35 00 00 29 00 79 1D 6D 1D 1D 00 01 1D 6D 00 1D 6D 1D 1D 00 00 1D 00 01 1D 6D 1D 1D 00 01 1D 6D 1D 1D 00 00 FF 2F 00 4D 54 72 6B 00 00 05 77 00 FF 21 01 00 00 FF 03 06 4D 65 6C 6F 64 79 00 C1 1D 00 B1 07 7F 00 B1 0A 48 9E 00 91 3C 7F 1D 3C 00 1F 3C 79 1D 3C 00 01 3C 72 1D 3C 00 01 41 7F 81 33 41 00 01 3C 57 1D 3C 00 01 41 63 1D 41 00 01 45 65 1D 45 00 01 43 52 1D 43 00 01 41 5B 3B 41 00 01 3F 7C 1D 3F 00 1F 3F 7C 1D 3F 00 01 3F 6B 1D 3F 00 01 46 6F 81 33 46 00 01 3F 67 1D 3F 00 01 43 63 1D 43 00 01 46 5D 1D 46 00 01 45 6F 1D 45 00 01 43 6F 1D 43 00 1F 3C 79 1D 3C 00 1F 3C 7F 1D 3C 00 01 3C 6F 1D 3C 00 01 41 75 81 33 41 00 01 3C 57 1D 3C 00 01 41 5D 1D 41 00 01 45 5A 1D 45 00 01 43 5B 1D 43 00 01 41 4D 3B 41 00 01 3F 60 83 23 3F 00 3D 3C 7F 1D 3C 00 1F 3C 75 1D 3C 00 01 3C 79 1D 3C 00 01 41 79 81 33 41 00 01 3C 65 1D 3C 00 01 41 4E 1D 41 00 01 45 51 1D 45 00 01 43 54 1E 41 48 04 43 00 37 41 00 01 3F 5D 1D 3F 00 1F 3F 7C 1D 3F 00 01 3F 73 1D 3F 00 01 46 6B 81 33 46 00 01 3F 49 1D 3F 00 01 43 65 1D 43 00 01 46 4B 1D 46 00 01 45 67 1D 45 00 01 43 6A 3B 43 00 01 41 6F 1D 41 00 1F 41 79 1D 41 00 01 41 51 1D 41 00 01 48 5A 81 33 48 00 01 41 58 1D 41 00 01 45 6C 1D 45 00 01 48 58 1D 48 00 01 46 5D 22 46 00 01 45 6A 37 43 67 04 45 00 82 45 43 00 81 17 4D 67 1E 4D 00 1E 48 5A 1E 48 00 1E 4D 6A 1E 4D 00 1E 48 5F 1E 48 00 5A 48 67 1E 48 00 1E 4D 65 1E 4D 00 1E 48 5D 1E 48 00 1E 4B 73 1E 4B 00 1E 46 78 1E 46 00 1E 4B 64 1E 4B 00 1E 46 78 1E 46 00 5A 46 78 1E 46 00 1E 4B 6B 1E 4B 00 1E 46 6F 1E 46 00 1E 49 7C 1E 49 00 1E 44 73 1E 44 00 1E 49 6F 1E 49 00 1E 44 73 1E 44 00 5A 44 6F 1E 44 00 1E 49 67 1E 49 00 1E 44 67 1E 44 00 1E 48 75 1E 48 00 1E 43 58 1E 43 00 1E 48 6F 1E 48 00 1E 43 6C 1E 43 00 5A 43 6F 1E 43 00 1E 48 6C 1E 48 00 1E 43 72 1E 43 00 9E 1E 41 65 3B 41 00 01 3C 6A 3B 3C 00 01 41 6A 3B 41 00 01 44 60 3B 44 00 01 48 61 3B 48 00 01 46 53 3B 46 00 01 44 51 3B 44 00 01 43 6C 3B 43 00 01 41 61 3B 41 00 01 3D 7C 3B 3D 00 01 41 5B 3B 41 00 01 44 4F 3B 44 00 01 48 63 3B 48 00 01 46 3B 3B 46 00 01 44 51 3B 44 00 01 43 63 3B 43 00 01 41 6F 3B 41 00 01 3E 7F 3B 3E 00 01 41 5F 3B 41 00 01 45 63 3B 45 00 01 4A 53 3B 4A 00 01 48 5A 3B 48 00 01 46 58 3B 46 00 01 45 6C 3B 45 00 01 43 67 3B 43 00 01 3E 7F 3B 3E 00 01 43 5D 3B 43 00 01 46 58 3B 46 00 01 4A 63 3B 4A 00 01 48 53 3B 48 00 01 46 37 3B 46 00 01 43 65 3B 43 00 01 44 55 3B 44 00 01 3F 78 3B 3F 00 01 44 6F 3B 44 00 01 48 6C 3B 48 00 01 4B 55 3B 4B 00 01 49 60 3B 49 00 01 48 63 3B 48 00 01 46 55 3B 46 00 01 43 7F 3B 43 00 01 3F 7F 3B 3F 00 01 43 75 3B 43 00 01 46 5D 3B 46 00 01 4B 60 3B 4B 00 01 49 4D 3B 49 00 01 48 6A 3B 48 00 01 46 5B 3B 46 00 01 48 53 3B 48 00 01 44 7C 3B 44 00 01 46 51 3B 46 00 01 43 7F 3B 43 00 01 44 53 3B 44 00 01 41 7F 3B 41 00 01 43 63 3B 43 00 01 3F 7C 3B 3F 00 01 41 6F 3B 41 00 01 3D 7C 3B 3D 00 01 3F 58 3B 3F 00 01 3C 7F 3B 3C 00 01 3E 5A 3B 3E 00 01 3B 7F 3B 3B 00 01 40 63 3B 40 00 01 3C 7F 3B 3C 00 01 3C 7F 1D 3C 00 1F 3C 79 1D 3C 00 01 3C 72 1D 3C 00 01 41 7F 81 33 41 00 01 3C 57 1D 3C 00 01 41 63 1D 41 00 01 45 65 1D 45 00 01 43 52 1D 43 00 01 41 5B 3B 41 00 01 3F 7C 1D 3F 00 1F 3F 7C 1D 3F 00 01 3F 6B 1D 3F 00 01 46 6F 81 33 46 00 01 3F 67 1D 3F 00 01 43 63 1D 43 00 01 46 5D 1D 46 00 01 45 6F 1D 45 00 01 43 6F 1D 43 00 1F 3C 79 1D 3C 00 1F 3C 7F 1D 3C 00 01 3C 6F 1D 3C 00 01 41 75 81 33 41 00 01 3C 57 1D 3C 00 01 41 5D 1D 41 00 01 45 5A 1D 45 00 01 43 5B 1D 43 00 01 41 4D 3B 41 00 01 3F 60 83 23 3F 00 3D 3C 7F 1D 3C 00 1F 3C 75 1D 3C 00 01 3C 79 1D 3C 00 01 41 79 81 33 41 00 01 3C 65 1D 3C 00 01 41 4E 1D 41 00 01 45 51 1D 45 00 01 43 54 1E 41 48 04 43 00 37 41 00 01 3F 5D 1D 3F 00 1F 3F 7C 1D 3F 00 01 3F 73 1D 3F 00 01 46 6B 81 33 46 00 01 3F 49 1D 3F 00 01 43 65 1D 43 00 01 46 4B 1D 46 00 01 45 67 1D 45 00 01 43 6A 3B 43 00 01 41 6F 1D 41 00 1F 41 79 1D 41 00 01 41 51 1D 41 00 01 48 5A 81 33 48 00 01 41 58 1D 41 00 01 45 6C 1D 45 00 01 48 58 1D 48 00 01 46 5D 22 46 00 01 45 6A 37 43 67 04 45 00 73 43 00 06 41 6C 19 42 6F 04 41 00 19 42 00 01 43 7F 1D 43 00 01 44 6B 1D 44 00 01 45 79 1D 45 00 01 46 6B 1D 46 00 01 47 79 1D 47 00 01 48 5F 1D 48 00 01 49 73 1D 49 00 01 4A 5B 1D 4A 00 01 4B 7C 1D 4B 00 01 4C 6A 1D 4C 00 01 4D 75 3B 4D 00 5B 35 5F 05 29 5F 18 35 00 01 29 5F 00 35 5F 04 29 00 19 35 00 00 29 00 01 29 5F 00 35 5F 1D 35 00 00 29 00 01 29 5F 05 35 5F 18 29 00 05 35 00 00 FF 2F 00 4D 54 72 6B 00 00 13 5B 00 FF 21 01 00 00 FF 03 0A 50 65 72 63 75 73 73 69 6F 6E 00 B9 07 7F 00 99 24 6A 00 2A 65 1D 2A 00 00 24 00 1F 2A 5D 00 24 50 1D 24 00 00 2A 00 1F 26 56 00 2A 70 1D 2A 00 00 26 00 1F 2A 5D 00 24 55 1D 24 00 00 2A 00 1F 2A 5A 00 24 52 1D 24 00 00 2A 00 1F 2A 52 00 24 55 1D 24 00 00 2A 00 1F 26 77 00 2A 7D 00 31 69 1D 31 00 00 2A 00 00 26 00 1F 24 52 00 2A 43 1D 2A 00 00 24 00 1F 24 60 00 2A 5D 1D 2A 00 00 24 00 1F 2A 56 00 24 58 1D 24 00 00 2A 00 1F 2A 65 00 26 64 00 31 65 1D 31 00 00 26 00 00 2A 00 1F 24 5C 00 2A 62 1D 2A 00 00 24 00 1F 2A 65 00 24 64 1D 24 00 00 2A 00 1F 2A 4E 00 24 55 1D 24 00 00 2A 00 1F 2A 78 00 26 74 00 31 5D 1D 31 00 00 26 00 00 2A 00 1F 2A 52 00 24 56 1D 24 00 00 2A 00 1F 2A 6C 00 24 62 1D 24 00 00 2A 00 1F 2A 4E 00 24 5D 1D 24 00 00 2A 00 1F 2A 78 00 26 71 00 31 60 1D 31 00 00 26 00 00 2A 00 1F 2A 5A 00 24 5F 1D 24 00 00 2A 00 1F 2A 65 00 24 60 1D 24 00 00 2A 00 1F 2A 56 00 24 5C 1D 24 00 00 2A 00 1F 2A 7F 00 26 77 00 31 70 1D 31 00 00 26 00 00 2A 00 1F 2A 5D 00 24 59 1D 24 00 00 2A 00 1F 2A 70 00 24 68 1D 24 00 00 2A 00 1F 2A 56 00 24 5D 1D 24 00 00 2A 00 1F 2A 74 00 26 71 00 31 62 1D 31 00 00 26 00 00 2A 00 1F 24 66 00 2A 62 1D 2A 00 00 24 00 1F 26 6A 00 2A 7D 00 31 74 1D 31 00 00 2A 00 00 26 00 1F 24 68 00 2A 69 1D 2A 00 00 24 00 1F 26 6F 00 31 78 00 2A 7D 1D 2A 00 00 31 00 00 26 00 1F 2A 62 00 24 68 1D 24 00 00 2A 00 1F 2A 70 00 24 6A 1D 24 00 00 2A 00 1F 2A 56 00 24 64 1D 24 00 00 2A 00 1F 31 74 00 2A 78 00 26 71 1D 26 00 00 2A 00 00 31 00 1F 24 64 00 2A 69 1D 2A 00 00 24 00 1F 24 66 00 2A 62 1D 2A 00 00 24 00 1F 24 60 00 2A 70 1D 2A 00 00 24 00 1F 26 7A 00 31 74 00 2A 7D 1D 2A 00 00 31 00 00 26 00 1F 24 60 00 2A 65 1D 2A 00 00 24 00 1F 24 68 00 2A 62 1D 2A 00 00 24 00 1F 24 66 00 2A 69 1D 2A 00 00 24 00 1F 26 74 00 31 69 00 2A 78 1D 2A 00 00 31 00 00 26 00 1F 24 62 00 2A 69 1D 2A 00 00 24 00 1F 26 66 00 2A 74 00 31 69 1D 31 00 00 2A 00 00 26 00 1F 24 54 00 2A 60 1D 2A 00 00 24 00 1F 26 6A 00 2A 78 00 31 69 1D 31 00 00 2A 00 00 26 00 1F 24 5B 00 2A 5D 1D 2A 00 00 24 00 1F 24 6C 00 2A 70 1D 2A 00 00 24 00 1F 2A 65 00 24 6A 1D 24 00 00 2A 00 1F 26 71 00 31 78 00 2A 78 1D 2A 00 00 31 00 00 26 00 1F 24 5B 00 2A 60 1D 2A 00 00 24 00 1F 24 66 00 2A 6C 1D 2A 00 00 24 00 1F 2A 50 00 24 68 1D 24 00 00 2A 00 1F 2A 78 00 26 6C 00 31 60 1D 31 00 00 26 00 00 2A 00 1F 24 5F 00 2A 70 1D 2A 00 00 24 00 1F 24 6A 00 2A 70 1D 2A 00 00 24 00 1F 24 64 00 2A 65 1D 2A 00 00 24 00 1F 26 77 00 2A 7D 00 31 78 1D 31 00 00 2A 00 00 26 00 1F 24 59 00 2A 6C 1D 2A 00 00 24 00 1F 26 6C 00 2A 78 00 31 62 1D 31 00 00 2A 00 00 26 00 1F 24 64 00 2A 65 1D 2A 00 00 24 00 1F 26 66 00 2A 74 00 31 65 1D 31 00 00 2A 00 00 26 00 1F 24 5C 00 2A 65 1D 2A 00 00 24 00 1F 24 74 00 2A 74 1D 2A 00 00 24 00 1F 2A 56 00 24 66 1D 24 00 00 2A 00 1F 26 74 00 2A 7F 00 31 69 1D 31 00 00 2A 00 00 26 00 1F 24 60 00 2A 70 1D 2A 00 00 24 00 1F 24 62 00 2A 70 1D 2A 00 00 24 00 1F 2A 69 00 24 62 1D 24 00 00 2A 00 1F 26 6F 00 2A 7F 00 31 6C 1D 31 00 00 2A 00 00 26 00 1F 24 5B 00 2A 6C 1D 2A 00 00 24 00 1F 24 68 00 2A 6C 1D 2A 00 00 24 00 1F 2A 65 00 24 6A 1D 24 00 00 2A 00 1F 2A 7D 00 31 70 00 26 7A 1D 26 00 00 31 00 00 2A 00 1F 24 68 00 2A 74 1D 2A 00 00 24 00 1F 26 77 00 2A 7D 00 31 70 1D 31 00 00 2A 00 00 26 00 1F 24 64 00 2A 54 1D 2A 00 00 24 00 1F 26 77 00 2A 7D 00 31 70 1D 31 00 00 2A 00 00 26 00 1F 2A 6C 00 24 68 1D 24 00 00 2A 00 1F 24 74 00 2A 70 1D 2A 00 00 24 00 1F 2A 70 00 24 66 1D 24 00 00 2A 00 1F 26 7A 00 2A 7D 00 31 78 1D 31 00 00 2A 00 00 26 00 1F 24 6C 00 2A 70 1D 2A 00 00 24 00 1F 24 68 00 2A 70 1D 2A 00 00 24 00 1F 24 68 00 2A 5D 1D 2A 00 00 24 00 1F 26 7E 00 2A 78 00 31 78 1D 31 00 00 2A 00 00 26 00 1F 24 64 00 2A 70 1D 2A 00 00 24 00 1F 24 6A 00 2A 70 1D 2A 00 00 24 00 1F 2A 5D 00 24 64 1D 24 00 00 2A 00 1F 2A 78 00 31 70 00 26 74 1D 26 00 00 31 00 00 2A 00 1F 24 6A 00 2A 78 1D 2A 00 00 24 00 1F 26 74 00 2A 78 1D 2A 00 00 26 00 1F 24 62 00 2A 65 1D 2A 00 00 24 00 1F 26 71 00 2A 70 00 31 6C 1D 31 00 00 2A 00 00 26 00 1F 24 6A 00 2A 5D 1D 2A 00 00 24 00 1F 24 71 00 2A 78 1D 2A 00 00 24 00 1F 24 68 00 2A 74 1D 2A 00 00 24 00 1F 26 74 00 2A 78 00 31 62 1D 31 00 00 2A 00 00 26 00 1F 24 59 00 2A 5A 1D 2A 00 00 24 00 1F 24 64 00 2A 70 1D 2A 00 00 24 00 1F 24 64 00 2A 69 1D 2A 00 00 24 00 1F 26 77 00 2A 7D 00 31 6C 1D 31 00 00 2A 00 00 26 00 1F 24 60 00 2A 70 1D 2A 00 00 24 00 1F 24 6A 00 2A 74 1D 2A 00 00 24 00 1F 2A 60 00 24 6C 1D 24 00 00 2A 00 1F 2A 7D 00 26 77 00 31 69 1D 31 00 00 26 00 00 2A 00 1F 24 6A 00 2A 69 1D 2A 00 00 24 00 1F 26 6A 00 2A 74 1D 2A 00 00 26 00 1F 24 6F 00 2A 74 1D 2A 00 00 24 00 1F 26 74 00 2A 7D 00 31 70 1D 31 00 00 2A 00 00 26 00 1F 24 68 00 2A 70 1D 2A 00 00 24 00 1F 24 68 00 2A 70 1D 2A 00 00 24 00 1F 24 6C 00 2A 70 1D 2A 00 00 24 00 1F 26 7A 00 2A 7D 00 31 74 1D 31 00 00 2A 00 00 26 00 1F 24 6A 00 2A 69 1D 2A 00 00 24 00 1F 24 7A 00 2A 70 1D 2A 00 00 24 00 1F 24 6F 00 2A 6C 1D 2A 00 00 24 00 1F 26 6F 00 2A 7D 00 31 62 1D 31 00 00 2A 00 00 26 00 1F 24 62 00 2A 6C 1D 2A 00 00 24 00 1F 24 6F 00 2A 74 1D 2A 00 00 24 00 1F 24 6C 00 2A 65 1D 2A 00 00 24 00 1F 2A 78 00 26 7A 00 31 70 1D 31 00 00 26 00 00 2A 00 1F 24 68 00 2A 69 1D 2A 00 00 24 00 1F 26 7E 00 2A 70 00 31 65 1D 31 00 00 2A 00 00 26 00 1F 24 62 00 2A 74 1D 2A 00 00 24 00 1F 26 7A 00 31 65 00 2A 78 1D 2A 00 00 31 00 00 26 00 1F 24 6A 00 2A 74 1D 2A 00 00 24 00 1F 2A 74 00 24 74 1D 24 00 00 2A 00 1F 24 6F 00 2A 6C 1D 2A 00 00 24 00 1F 26 7E 00 2A 7F 00 31 78 1D 31 00 00 2A 00 00 26 00 1F 24 6A 00 2A 65 1D 2A 00 00 24 00 1F 24 6C 00 2A 69 1D 2A 00 00 24 00 1F 24 68 00 2A 70 1D 2A 00 00 24 00 1F 26 74 00 2A 7D 00 31 6C 1D 31 00 00 2A 00 00 26 00 1F 24 62 00 2A 70 1D 2A 00 00 24 00 1F 24 6A 00 2A 74 1D 2A 00 00 24 00 1F 2A 62 00 24 6A 1D 24 00 00 2A 00 1F 31 78 00 2A 78 00 26 7A 1D 26 00 00 2A 00 00 31 00 1F 24 62 00 2A 70 1D 2A 00 00 24 00 1F 24 6A 00 2A 70 1D 2A 00 00 24 00 1F 24 68 00 2A 65 1D 2A 00 00 24 00 1F 31 74 00 2A 78 00 26 74 1D 26 00 00 2A 00 00 31 00 1F 24 6A 00 2A 70 1D 2A 00 00 24 00 1F 24 6C 00 2A 74 1D 2A 00 00 24 00 1F 2A 70 00 24 6A 1D 24 00 00 2A 00 1F 2A 78 00 31 70 00 26 71 1D 26 00 00 31 00 00 2A 00 1F 2A 74 00 24 6C 1D 24 00 00 2A 00 1F 24 6C 00 2A 78 1D 2A 00 00 24 00 1F 2A 70 00 24 6C 1D 24 00 00 2A 00 1F 2A 7D 00 31 74 00 26 74 1D 26 00 00 31 00 00 2A 00 1F 2A 74 00 24 68 1D 24 00 00 2A 00 1F 24 71 00 2A 7D 1D 2A 00 00 24 00 1F 24 6C 00 2A 78 1D 2A 00 00 24 00 1F 2A 6C 00 31 7D 00 26 7F 1D 26 00 00 31 00 00 2A 00 1F 24 71 00 2A 78 1D 2A 00 00 24 00 1F 2A 6C 00 26 74 00 31 74 1D 31 00 00 26 00 00 2A 00 1F 24 6A 00 2A 78 1D 2A 00 00 24 00 1F 2A 70 00 26 7E 00 31 74 1D 31 00 00 26 00 00 2A 00 1F 2A 74 00 24 62 1D 24 00 00 2A 00 1F 2A 60 00 24 71 1D 24 00 00 2A 00 1F 2A 70 00 24 6F 1D 24 00 00 2A 00 1F 2A 70 00 31 6C 00 26 7A 1D 26 00 00 31 00 00 2A 00 1F 24 6A 00 2A 74 1D 2A 00 00 24 00 1F 24 6C 00 2A 62 1D 2A 00 00 24 00 1F 24 6F 00 2A 70 1D 2A 00 00 24 00 1F 26 7E 00 2A 70 00 31 70 1D 31 00 00 2A 00 00 26 00 1F 24 6A 00 2A 6C 1D 2A 00 00 24 00 1F 24 6F 00 2A 60 1D 2A 00 00 24 00 1F 24 6A 00 2A 74 1D 2A 00 00 24 00 1F 2A 69 00 31 6C 00 26 5F 1D 26 00 00 31 00 00 2A 00 1F 24 68 00 2A 7D 1D 2A 00 00 24 00 1F 2A 69 00 24 6C 1D 24 00 00 2A 00 1F 24 6F 00 2A 74 1D 2A 00 00 24 00 1F 26 77 00 2A 70 00 31 74 1D 31 00 00 2A 00 00 26 00 1F 24 60 00 2A 74 1D 2A 00 00 24 00 1F 2A 62 00 24 6C 1D 24 00 00 2A 00 1F 24 6C 00 2A 74 1D 2A 00 00 24 00 1F 26 74 00 2A 69 00 31 6C 1D 31 00 00 2A 00 00 26 00 1F 24 6A 00 2A 70 1D 2A 00 00 24 00 1F 2A 62 00 24 68 1D 24 00 00 2A 00 1F 24 6A 00 2A 70 1D 2A 00 00 24 00 1F 2A 6C 00 26 7A 00 31 78 1D 31 00 00 26 00 00 2A 00 1F 24 68 00 2A 74 1D 2A 00 00 24 00 1F 24 71 00 2A 65 1D 2A 00 00 24 00 1F 24 6C 00 2A 74 1D 2A 00 00 24 00 1F 26 7E 00 2A 6C 00 31 70 1D 31 00 00 2A 00 00 26 00 1F 24 6F 00 2A 74 1D 2A 00 00 24 00 1F 26 7A 00 2A 6C 00 31 69 1D 31 00 00 2A 00 00 26 00 1F 24 6C 00 2A 74 1D 2A 00 00 24 00 1F 26 74 00 2A 6C 00 31 74 1D 31 00 00 2A 00 00 26 00 1F 24 6F 00 2A 74 1D 2A 00 00 24 00 1F 24 77 00 2A 6C 1D 2A 00 00 24 00 1F 24 71 00 2A 78 1D 2A 00 00 24 00 1F 31 74 00 26 7E 00 2A 74 1D 2A 00 00 26 00 00 31 00 1F 24 6A 00 2A 6C 1D 2A 00 00 24 00 1F 24 68 00 2A 62 1D 2A 00 00 24 00 1F 24 6F 00 2A 70 1D 2A 00 00 24 00 1F 26 7E 00 2A 69 00 31 6C 1D 31 00 00 2A 00 00 26 00 1F 24 66 00 2A 69 1D 2A 00 00 24 00 1F 24 68 00 2A 70 1D 2A 00 00 24 00 1F 24 6C 00 2A 74 1D 2A 00 00 24 00 1F 26 7A 00 2A 70 00 31 6C 1D 31 00 00 2A 00 00 26 00 1F 24 62 00 2A 78 1D 2A 00 00 24 00 1F 26 71 00 2A 70 00 31 60 1D 31 00 00 2A 00 00 26 00 1F 24 64 00 2A 74 1D 2A 00 00 24 00 1F 26 77 00 2A 74 00 31 60 1D 31 00 00 2A 00 00 26 00 1F 24 66 00 2A 78 1D 2A 00 00 24 00 1F 2A 69 00 24 71 1D 24 00 00 2A 00 1F 2A 70 00 24 6C 1D 24 00 00 2A 00 1F 2A 70 00 26 7A 00 31 4C 1D 31 00 00 26 00 00 2A 00 1F 24 64 00 2A 6C 1D 2A 00 00 24 00 1F 24 6F 00 2A 6C 1D 2A 00 00 24 00 1F 24 6F 00 2A 70 1D 2A 00 00 24 00 1F 31 74 00 2A 70 00 26 7E 1D 26 00 00 2A 00 00 31 00 1F 24 6A 00 2A 70 1D 2A 00 00 24 00 1F 24 6C 00 2A 65 1D 2A 00 00 24 00 1F 24 6F 00 2A 78 1D 2A 00 00 24 00 1F 26 7F 00 31 7F 00 2A 7D 1D 2A 00 00 31 00 00 26 00 1F 2A 7D 05 24 7F 18 2A 00 05 24 00 1A 31 7F 00 2A 7D 05 26 71 18 2A 00 00 31 00 05 26 00 1F 24 7A 00 2A 7D 1D 2A 00 00 24 00 1A 26 77 00 2A 7D 05 31 7F 18 2A 00 00 26 00 05 31 00 1A 26 74 00 2A 74 1D 2A 00 00 26 00 24 24 6F 00 2A 78 1D 2A 00 00 24 00 1F 24 7D 00 2A 70 1D 2A 00 00 24 00 1A 31 7D 00 26 7F 00 2A 5D 1D 2A 00 00 26 00 00 31 00 1F 24 68 00 2A 60 1D 2A 00 00 24 00 1F 24 6F 05 2A 6C 18 24 00 05 2A 00 1A 24 77 00 2A 69 1D 2A 00 00 24 00 1F 31 74 00 26 64 00 2A 6C 1D 2A 00 00 26 00 00 31 00 1F 2A 65 05 24 71 18 2A 00 05 24 00 1F 24 6F 00 2A 65 1D 2A 00 00 24 00 1A 2A 69 05 24 6F 18 2A 00 05 24 00 1A 26 71 00 2A 78 00 31 70 1D 31 00 00 2A 00 00 26 00 1F 24 5F 00 2A 65 1D 2A 00 00 24 00 1F 24 71 00 2A 69 1D 2A 00 00 24 00 1F 2A 6C 00 24 6A 1D 24 00 00 2A 00 1F 26 7F 00 2A 70 00 31 78 1D 31 00 00 2A 00 00 26 00 1F 24 6A 00 2A 69 1D 2A 00 00 24 00 1F 2A 69 00 24 71 1D 24 00 00 2A 00 1F 24 6F 00 2A 74 1D 2A 00 00 24 00 1F 26 7F 00 2A 6C 00 31 62 1D 31 00 00 2A 00 00 26 00 1F 24 68 00 2A 69 1D 2A 00 00 24 00 1F 24 71 00 2A 65 1D 2A 00 00 24 00 1F 24 6F 00 2A 74 1D 2A 00 00 24 00 1F 2A 62 00 26 7F 00 31 70 1D 31 00 00 26 00 00 2A 00 1F 24 64 00 2A 69 1D 2A 00 00 24 00 1F 2A 69 00 24 71 1D 24 00 00 2A 00 1F 24 6F 00 2A 6C 1D 2A 00 00 24 00 1F 31 69 00 2A 78 00 26 77 1D 26 00 00 2A 00 00 31 00 1F 24 6A 00 2A 70 1D 2A 00 00 24 00 1F 26 74 00 31 74 00 2A 78 1D 2A 00 00 31 00 00 26 00 1F 24 68 00 2A 78 1D 2A 00 00 24 00 1F 2A 7D 00 31 74 00 26 7A 1D 26 00 00 31 00 00 2A 00 1F 24 6A 00 2A 6C 1D 2A 00 00 24 00 1F 24 74 00 2A 74 1D 2A 00 00 24 00 1F 2A 6C 00 24 71 1D 24 00 00 2A 00 1F 31 78 00 26 7E 00 2A 78 1D 2A 00 00 26 00 00 31 00 1F 24 6F 00 2A 74 1D 2A 00 00 24 00 1F 24 6F 00 2A 74 1D 2A 00 00 24 00 1F 24 66 00 2A 70 1D 2A 00 00 24 00 1F 26 7A 00 2A 78 00 31 6C 1D 31 00 00 2A 00 00 26 00 1F 24 5D 00 2A 70 1D 2A 00 00 24 00 1F 24 6C 00 2A 78 1D 2A 00 00 24 00 1F 2A 69 00 24 68 1D 24 00 00 2A 00 1F 2A 7D 00 31 78 00 26 77 1D 26 00 00 31 00 00 2A 00 1F 24 66 00 2A 70 1D 2A 00 00 24 00 1F 24 6C 00 2A 6C 1D 2A 00 00 24 00 1F 24 6C 00 2A 70 1D 2A 00 00 24 00 1F 26 7A 00 2A 6C 00 31 70 1D 31 00 00 2A 00 00 26 00 1F 24 64 00 2A 69 1D 2A 00 00 24 00 1F 26 71 00 31 5F 00 2A 70 1D 2A 00 00 31 00 00 26 00 1F 24 6C 00 2A 70 1D 2A 00 00 24 00 1F 26 7F 00 31 78 00 2A 6C 1D 2A 00 00 31 00 00 26 00 1F 24 71 00 2A 6C 1D 2A 00 00 24 00 1F 26 77 00 2A 6C 00 31 6C 1D 31 00 00 2A 00 00 26 00 1F 24 66 00 2A 70 1D 2A 00 00 24 00 1F 26 71 00 2A 6C 00 31 70 1D 31 00 00 2A 00 00 26 00 1F 24 6A 00 2A 69 1D 2A 00 00 24 00 1F 26 77 00 2A 6C 00 31 6C 1D 31 00 00 2A 00 00 26 00 1F 24 66 00 2A 74 1D 2A 00 00 24 00 1F 26 74 00 2A 6C 00 31 62 1D 31 00 00 2A 00 00 26 00 1F 24 66 00 2A 6C 1D 2A 00 00 24 00 1F 26 7A 00 2A 70 00 31 62 1D 31 00 00 2A 00 00 26 00 1F 24 62 00 2A 6C 1D 2A 00 00 24 00 1F 26 71 00 2A 6C 00 31 70 1D 31 00 00 2A 00 00 26 00 1F 2A 70 00 26 5F 1D 26 00 00 2A 00 1F 2A 70 00 24 6C 1D 24 00 00 2A 00 1F 2A 70 00 24 6A 1D 24 00 00 2A 00 1F 26 71 00 2A 70 00 31 6C 1D 31 00 00 2A 00 00 26 00 1F 24 66 00 2A 65 1D 2A 00 00 24 00 1F 2A 69 00 24 6C 1D 24 00 00 2A 00 1F 24 6C 00 2A 70 1D 2A 00 00 24 00 1F 26 7E 00 2A 6C 00 31 74 1D 31 00 00 2A 00 00 26 00 1F 24 66 00 2A 69 1D 2A 00 00 24 00 1F 24 74 00 2A 6C 1D 2A 00 00 24 00 1F 24 68 00 2A 74 1D 2A 00 00 24 00 1F 26 7A 00 2A 6C 00 31 56 1D 31 00 00 2A 00 00 26 00 1F 24 60 00 2A 6C 1D 2A 00 00 24 00 1F 2A 65 00 24 62 1D 24 00 00 2A 00 1F 24 64 00 2A 74 1D 2A 00 00 24 00 1F 2A 70 00 26 7A 00 31 6C 1D 31 00 00 26 00 00 2A 00 1F 24 68 00 2A 6C 1D 2A 00 00 24 00 1F 24 74 00 2A 65 1D 2A 00 00 24 00 1F 24 6A 00 2A 74 1D 2A 00 00 24 00 1F 26 77 00 2A 70 00 31 69 1D 31 00 00 2A 00 00 26 00 1F 24 68 00 2A 65 1D 2A 00 00 24 00 1F 24 6A 00 2A 6C 1D 2A 00 00 24 00 1F 24 6C 00 2A 69 1D 2A 00 00 24 00 1F 26 74 00 2A 69 00 31 70 1D 31 00 00 2A 00 00 26 00 1F 24 6A 00 2A 69 1D 2A 00 00 24 00 1F 24 6F 00 2A 70 1D 2A 00 00 24 00 1F 2A 70 00 24 71 1D 24 00 00 2A 00 1F 2A 70 00 31 74 00 26 7F 1D 26 00 00 31 00 00 2A 00 1F 24 62 00 2A 74 1D 2A 00 00 24 00 1F 26 77 00 2A 6C 00 31 78 1D 31 00 00 2A 00 00 26 00 1F 24 5F 00 2A 70 1D 2A 00 00 24 00 1F 26 7A 00 2A 70 00 31 74 1D 31 00 00 2A 00 00 26 00 1F 24 60 00 2A 62 1D 2A 00 00 24 00 1F 24 77 00 2A 70 1D 2A 00 00 24 00 1F 2A 65 00 24 6C 1D 24 00 00 2A 00 1F 2A 70 00 26 7F 00 31 74 1D 31 00 00 26 00 00 2A 00 1F 24 64 00 2A 62 1D 2A 00 00 24 00 1F 2A 62 00 24 6C 1D 24 00 00 2A 00 1F 2A 69 00 24 6C 1D 24 00 00 2A 00 1F 26 7A 00 2A 70 00 31 70 1D 31 00 00 2A 00 00 26 00 1F 24 6C 00 2A 69 1D 2A 00 00 24 00 1F 2A 6C 00 24 6F 1D 24 00 00 2A 00 1F 24 7E 00 2A 69 1D 2A 00 00 24 00 1F 26 6C 00 2A 70 00 31 74 1D 31 00 00 2A 00 00 26 00 1F 2A 70 00 24 77 1D 24 00 00 2A 00 1F 2A 6C 00 24 5B 1D 24 00 00 2A 00 1F 24 71 00 2A 74 1D 2A 00 00 24 00 1F 26 74 00 2A 70 00 31 74 1D 31 00 00 2A 00 00 26 00 1F 24 77 00 2A 6C 1D 2A 00 00 24 00 1F 26 7E 00 2A 65 00 31 48 1D 31 00 00 2A 00 00 26 00 1F 2A 60 00 24 6F 1D 24 00 00 2A 00 1F 2A 70 00 26 7A 00 31 74 1D 31 00 00 26 00 00 2A 00 1F 2A 65 00 24 6A 1D 24 00 00 2A 00 1F 2A 70 00 24 6A 1D 24 00 00 2A 00 1F 2A 6C 00 24 68 1D 24 00 00 2A 00 1F 2A 70 00 26 77 00 31 70 1D 31 00 00 26 00 00 2A 00 1F 24 6C 00 2A 70 1D 2A 00 00 24 00 1F 26 7A 00 2A 74 1D 2A 00 00 26 00 1F 26 71 00 2A 70 1D 2A 00 00 26 00 1F 2A 69 00 26 5F 00 31 6C 1D 31 00 00 26 00 00 2A 00 01 26 62 1D 26 00 01 26 65 00 2A 70 1D 2A 00 00 26 00 01 26 68 1D 26 00 01 26 6B 00 2A 6C 1D 2A 00 00 26 00 01 26 6E 1D 26 00 01 26 71 00 2A 78 00 31 5D 1D 31 00 00 2A 00 00 26 00 01 26 74 1D 26 00 01 26 77 00 2A 78 00 31 65 00 2A 70 00 31 70 1D 31 00 00 31 00 00 26 00 00 2A 00 00 2A 00 01 26 7D 00 31 70 00 2A 6C 1D 2A 00 00 31 00 00 26 00 01 26 7F 00 2A 65 00 31 65 1D 31 00 00 2A 00 00 26 00 1F 24 7F 00 2A 7F 1D 2A 00 00 24 00 82 4B 31 7F 1D 31 00 00 FF 2F 00 4D 54 72 6B 00 00 00 15 00 FF 21 01 00 00 FF 03 08 4D 2E 55 2E 4C 2E 45 2E 00 FF 2F 00 4D 54 72 6B 00 00 00 1A 00 FF 21 01 00 00 FF 03 0D 62 79 20 52 6F 79 20 47 6C 6F 76 65 72 00 FF 2F 00
